<?xml version="1.0" encoding="utf-8"?>
<svg version="1.2" viewBox="0 0 40 40" width="40px" height="40px" xmlns="http://www.w3.org/2000/svg">
  <path class="a" d="M 17.097 0.836 C 12.581 2.473 9.548 5.927 7.419 11.836 L 6.258 15.018 L 6.194 19.109 C 6.129 21.382 6.323 24.382 6.581 25.927 L 7.032 28.655 L 6.129 25.927 C 4.903 22.382 4.903 18.018 6.129 13.927 C 6.645 12.2 7.097 10.564 7.097 10.382 C 7.097 10.2 5.935 10.018 4.452 10.018 L 1.871 10.018 L 0.903 13.2 L 0 16.291 L 0 23.745 L 0.968 26.927 L 1.935 30.2 L 4.645 29.927 L 7.419 29.745 L 10.387 33.836 L 13.419 37.927 L 16.71 39.109 L 20 40.2 L 23.097 39.109 L 26.258 38.109 L 28.645 35.291 L 31.032 32.564 L 32.387 28.836 L 33.806 25.018 L 33.806 15.018 L 32.452 11.382 C 30.129 5.2 26.452 1.564 21.613 0.655 L 19.032 0.2 L 17.097 0.836 Z M 33.226 11.564 C 33.484 12.473 34.065 14.745 34.387 16.564 L 35.097 20.018 L 34.387 23.382 C 34.065 25.291 33.484 27.564 33.226 28.382 L 32.774 30.018 L 38.129 30.018 L 39.097 26.836 L 40 23.745 L 40 16.291 L 39.097 13.2 L 38.129 10.018 L 32.774 10.018 L 33.226 11.564 Z"/>
</svg>