<?xml version="1.0" encoding="utf-8"?>
<svg version="1.2" viewBox="0 0 100 100" width="100px" height="100px" xmlns="http://www.w3.org/2000/svg">
  <path class="a" d="M 32.016 1.518 C 30.277 2.337 28.221 3.728 27.51 4.628 L 26.166 6.183 L 27.036 9.211 C 27.826 11.993 29.249 13.384 29.249 11.42 C 29.249 11.011 30.83 9.702 32.648 8.556 L 36.126 6.51 L 43.478 6.51 L 43.478 5.774 C 43.478 5.446 43.083 3.973 42.609 2.5 L 41.739 -0.036 L 35.178 -0.036 L 32.016 1.518 Z M 56.917 2.091 C 56.443 3.401 55.889 4.955 55.731 5.446 L 55.415 6.51 L 63.32 6.51 L 65.059 7.41 C 66.008 7.901 67.747 9.293 68.933 10.438 L 71.067 12.484 L 71.858 10.438 C 72.253 9.293 72.727 7.656 72.885 6.919 L 73.123 5.446 L 69.802 2.991 L 66.482 0.536 L 62.134 0.127 L 57.708 -0.2 L 56.917 2.091 Z M 41.344 8.474 C 34.862 10.029 30.514 12.075 25.296 16.248 C 19.763 20.586 16.285 25.086 12.964 32.288 L 10.356 38.016 L 9.486 43.908 L 8.538 49.882 L 9.407 55.528 C 9.881 58.638 10.988 63.139 11.937 65.676 L 13.597 70.095 L 17.628 75.741 L 21.739 81.306 L 26.561 84.743 L 31.383 88.098 L 36.443 89.898 L 41.502 91.699 L 47.431 92.19 L 53.36 92.599 L 58.735 91.289 L 64.032 89.98 L 68.933 87.443 L 73.913 84.825 L 79.051 79.424 L 84.19 74.023 L 86.403 69.358 C 87.589 66.821 89.091 62.648 89.723 60.029 L 90.909 55.283 L 90.909 44.481 L 89.723 39.653 C 86.166 25.741 76.68 15.021 63.478 10.029 L 58.261 8.065 L 52.253 7.738 L 46.245 7.329 L 41.344 8.474 Z M 11.067 17.64 C 8.3 20.095 6.798 22.877 6.087 26.723 L 5.613 29.342 L 7.826 31.06 C 9.091 31.96 10.277 32.697 10.514 32.697 C 10.672 32.697 11.304 31.06 11.779 29.096 L 12.648 25.496 L 14.783 23.122 C 16.047 21.813 17.708 20.258 18.577 19.767 L 20.158 18.785 L 18.182 17.149 C 15.573 15.021 14.071 15.103 11.067 17.64 Z M 82.213 17.967 L 80.237 19.604 L 81.818 20.586 C 82.688 21.077 84.348 22.55 85.455 23.777 L 87.51 26.068 L 88.458 29.833 L 89.407 33.679 L 91.937 31.96 L 94.466 30.324 L 94.229 28.032 C 93.755 24.514 91.779 20.586 89.17 18.376 C 86.324 15.921 84.822 15.839 82.213 17.967 Z M 1.107 43.744 C 0.553 45.299 0 47.836 0 49.473 C 0 51.109 0.553 53.646 1.107 55.201 L 2.292 58.065 L 8.617 58.065 L 7.431 55.201 C 6.008 51.6 6.008 47.345 7.431 43.744 L 8.617 40.88 L 2.292 40.88 L 1.107 43.744 Z M 91.937 43.09 C 92.569 44.399 93.281 46.363 93.518 47.509 L 94.071 49.718 L 92.885 53.646 C 92.253 55.856 91.7 57.738 91.7 57.82 C 91.7 57.983 93.043 58.065 94.783 58.065 L 97.866 58.065 L 98.893 55.365 L 100 52.746 L 100 46.199 L 98.893 43.499 L 97.866 40.88 L 90.83 40.88 L 91.937 43.09 Z M 7.747 67.149 L 5.534 68.867 L 5.534 70.749 C 5.534 74.923 9.012 80.569 12.885 82.697 L 14.308 83.515 L 16.68 81.715 L 19.13 79.996 L 16.206 77.46 L 13.281 74.923 L 12.174 72.304 C 11.542 70.749 11.067 68.622 11.067 67.476 C 11.067 65.021 10.593 64.939 7.747 67.149 Z M 87.905 70.586 C 86.798 74.841 84.506 78.114 81.265 79.833 L 78.893 81.142 L 81.818 83.188 L 84.743 85.234 L 87.589 82.779 C 90.988 79.996 93.043 76.641 93.439 73.286 L 93.676 70.995 L 91.225 69.031 L 88.775 66.985 L 87.905 70.586 Z M 26.957 90.962 L 26.087 93.581 L 27.826 95.545 C 28.854 96.69 30.751 98.081 32.174 98.654 L 34.704 99.8 L 41.739 99.8 L 42.609 97.263 C 43.083 95.79 43.478 94.399 43.478 93.99 L 43.478 93.417 L 39.368 93.417 L 35.257 93.335 L 31.858 90.88 C 29.96 89.489 28.3 88.343 28.142 88.343 C 27.984 88.343 27.431 89.489 26.957 90.962 Z M 69.96 89.162 C 69.644 89.653 68.063 90.717 66.403 91.617 L 63.32 93.253 L 55.415 93.253 L 56.443 96.281 L 57.47 99.391 L 60.079 99.636 C 61.581 99.8 63.874 99.718 65.217 99.473 L 67.668 98.982 L 70.514 96.527 L 73.36 94.072 L 72.49 91.208 C 71.7 88.343 70.83 87.689 69.96 89.162 Z"/>
</svg>