<?xml version="1.0" encoding="utf-8"?>
<svg version="1.2" viewBox="0 0 100 100" width="100px" height="100px" xmlns="http://www.w3.org/2000/svg">
  <path fill-rule="evenodd" class="a" d="M 45.455 0.079 L 49.091 0 C 51.067 0 53.834 0.396 55.257 0.871 L 57.708 1.742 L 57.708 8.789 L 55.336 7.522 L 53.043 6.334 L 46.561 6.334 L 43.874 7.443 L 41.107 8.63 L 41.107 2.454 L 43.32 1.267 L 45.455 0.079 Z M 46.245 8.709 L 52.253 9.105 L 58.261 9.422 L 63.478 11.322 C 76.68 16.152 86.166 26.524 89.723 39.984 L 90.909 44.656 L 90.909 55.107 L 89.723 59.699 C 89.091 62.233 87.589 66.271 86.403 68.725 L 84.19 73.238 L 73.913 83.69 L 68.933 86.223 L 64.032 88.678 L 58.735 89.945 L 53.36 91.211 L 47.431 90.816 L 41.502 90.34 L 31.383 86.857 L 26.561 83.61 L 21.739 80.285 L 17.628 74.901 L 13.597 69.438 L 11.937 65.162 C 10.988 62.708 9.881 58.353 9.407 55.344 L 8.538 49.881 L 9.486 44.101 L 10.356 38.401 L 12.964 32.858 C 16.285 25.891 19.763 21.536 25.296 17.34 C 30.435 13.46 35.02 11.322 41.502 9.818 L 46.245 8.709 Z M 22.213 13.539 C 24.98 15.519 25.059 16.31 22.609 16.944 C 21.502 17.181 19.605 18.29 18.34 19.398 L 15.968 21.378 L 14.704 24.545 L 13.439 27.791 L 12.016 26.999 C 11.225 26.524 10.04 25.653 9.486 24.941 L 8.458 23.753 L 9.881 20.665 C 11.304 17.498 14.071 14.41 16.996 12.827 C 19.209 11.56 19.605 11.639 22.213 13.539 Z M 83.874 13.46 L 87.036 15.123 L 88.617 17.656 C 89.407 19.082 90.356 20.982 90.593 22.011 L 91.067 23.832 L 89.249 25.812 C 86.877 28.345 86.482 28.266 85.375 24.941 L 84.506 22.249 L 81.739 19.794 C 80.237 18.527 78.735 17.419 78.419 17.419 C 78.103 17.419 77.312 17.023 76.68 16.627 L 75.573 15.914 L 77.47 13.935 C 79.684 11.481 79.842 11.481 83.874 13.46 Z M 2.292 41.172 L 8.617 41.172 L 7.431 43.943 C 6.008 47.427 6.008 51.544 7.431 55.028 L 8.617 57.799 L 2.292 57.799 L 1.107 55.028 C 0.553 53.523 0 51.069 0 49.485 C 0 47.902 0.553 45.447 1.107 43.943 L 2.292 41.172 Z M 90.83 41.172 L 97.866 41.172 L 98.893 43.705 L 100 46.318 L 100 52.652 L 98.893 55.186 L 97.866 57.799 L 94.783 57.799 C 93.043 57.799 91.7 57.72 91.7 57.561 C 91.7 57.482 92.253 55.661 92.885 53.523 L 94.071 49.723 L 93.518 47.585 C 93.281 46.477 92.569 44.576 91.937 43.31 L 90.83 41.172 Z M 13.043 71.18 L 14.308 73.951 C 15.889 77.593 18.656 80.523 21.976 82.264 L 24.585 83.61 L 22.213 85.827 L 19.921 88.044 L 16.917 86.461 C 13.123 84.481 11.462 82.739 9.881 78.86 L 8.617 75.772 L 13.043 71.18 Z M 86.561 71.338 L 88.538 73.08 C 89.644 74.03 90.672 74.901 90.751 74.98 C 90.909 75.059 90.83 76.247 90.514 77.593 L 89.96 80.047 L 87.51 82.898 L 84.98 85.748 L 79.605 87.965 L 77.391 85.827 L 75.099 83.61 L 77.945 82.185 C 82.055 80.206 83.478 78.701 85.138 74.743 L 86.561 71.338 Z M 41.107 90.974 L 43.478 92.241 L 45.771 93.428 L 53.043 93.428 L 55.336 92.241 L 57.708 90.974 L 57.708 98.021 L 55.257 98.971 L 52.806 100 L 49.407 99.921 L 46.087 99.921 L 43.557 98.654 L 41.107 97.308 L 41.107 90.974 Z"/>
</svg>