<?xml version="1.0" encoding="utf-8"?>
<svg version="1.2" viewBox="0 0 80 80" width="80px" height="80px" xmlns="http://www.w3.org/2000/svg">
  <path class="a" d="M 50.365 2.417 L 48.787 5.616 L 51.041 5.616 C 54.498 5.616 57.204 7.093 60.135 10.538 L 62.915 13.819 L 64.343 10.948 L 65.696 8.159 L 64.193 5.862 C 63.366 4.632 61.863 2.991 60.811 2.171 L 59.007 0.694 L 55.55 0.038 L 52.018 -0.7 L 50.365 2.417 Z M 19.928 1.843 C 17.448 2.991 13.54 7.503 13.54 9.143 C 13.54 9.717 14.141 11.194 14.968 12.424 L 16.321 14.721 L 18.425 11.686 L 20.529 8.733 L 23.009 7.585 C 24.362 6.929 26.391 6.436 27.443 6.436 L 29.322 6.436 L 29.322 5.616 C 29.322 5.124 28.796 3.811 28.12 2.745 L 26.917 0.694 L 24.512 0.694 C 23.235 0.776 21.13 1.269 19.928 1.843 Z M 33.981 5.698 C 32.178 6.026 28.871 7.257 26.616 8.405 L 22.558 10.456 L 18.5 14.639 L 14.442 18.822 L 12.112 23.99 L 9.782 29.158 L 9.181 34.244 L 8.505 39.247 L 9.181 44.333 L 9.782 49.419 L 11.661 53.766 L 13.465 58.114 L 17.298 62.543 L 21.13 66.89 L 25.489 69.515 L 29.848 72.058 L 35.184 73.042 L 40.445 74.027 L 45.104 73.042 C 47.584 72.55 51.417 71.238 53.596 70.172 L 57.504 68.203 L 61.412 64.348 L 65.395 60.41 L 68.101 54.504 L 70.806 48.516 L 71.182 42.036 L 71.558 35.556 L 70.43 30.798 L 69.228 25.959 L 66.748 21.447 L 64.268 16.936 L 60.961 13.737 C 53.671 6.682 43.451 3.647 33.981 5.698 Z M 1.065 33.095 C -0.288 36.704 -0.288 40.97 1.065 44.579 L 2.192 47.45 L 8.43 47.45 L 7.979 46.384 C 7.828 45.891 7.227 44.005 6.701 42.282 L 5.724 39.083 L 6.551 36.13 C 7.002 34.408 7.603 32.439 7.903 31.619 L 8.43 30.224 L 2.192 30.224 L 1.065 33.095 Z M 72.384 32.439 C 72.986 33.751 73.662 35.72 73.887 36.868 L 74.414 39.083 L 73.286 43.021 C 72.685 45.235 72.159 47.122 72.159 47.204 C 72.159 47.368 73.437 47.45 75.09 47.45 L 78.021 47.45 L 78.998 44.743 L 80.05 42.118 L 80.05 35.556 L 78.998 32.849 L 78.021 30.224 L 71.332 30.224 L 72.384 32.439 Z M 12.864 64.594 L 11.06 67.301 L 12.112 69.351 C 12.638 70.418 14.216 72.468 15.569 73.699 L 17.974 76.078 L 20.83 76.98 L 23.686 77.8 L 25.339 75.585 C 26.316 74.273 27.067 73.125 27.067 72.878 C 27.067 72.632 25.414 71.812 23.385 70.992 L 19.702 69.597 L 17.899 67.219 C 16.922 65.988 15.794 64.266 15.344 63.445 L 14.592 61.969 L 12.864 64.594 Z M 60.285 68.039 C 58.181 70.828 55.625 72.468 51.717 73.207 L 48.937 73.781 L 50.515 76.57 C 52.168 79.769 52.168 79.769 56.753 78.538 L 60.059 77.636 L 62.69 74.683 C 65.771 71.402 65.771 71.238 64.268 67.957 C 62.84 64.922 62.464 64.922 60.285 68.039 Z"/>
</svg>