<?xml version="1.0" encoding="utf-8"?>
<svg version="1.2" viewBox="0 0 60 60" width="60px" height="60px" xmlns="http://www.w3.org/2000/svg">
  <path class="a" d="M 24.948 1.071 L 22.61 2.071 L 22.61 7.857 L 23.177 7.857 C 23.46 7.786 24.452 7.357 25.443 6.786 L 27.214 5.786 L 29.906 5.714 L 32.598 5.714 L 35.007 6.714 L 37.486 7.786 L 37.486 2.071 L 35.007 1 L 32.598 0 L 29.906 0 C 28.419 0.071 26.152 0.5 24.948 1.071 Z M 25.656 7.857 C 21.547 8.714 17.297 11.071 14.18 14.214 L 11.488 16.929 L 9.93 20.286 L 8.301 23.643 L 7.946 28.143 L 7.592 32.571 L 8.655 36.5 L 9.788 40.357 L 12.055 43.429 C 13.259 45.071 15.597 47.357 17.226 48.5 L 20.201 50.571 L 24.381 51.786 L 28.489 53 L 32.456 52.571 L 36.423 52.143 L 40.107 50.286 L 43.72 48.5 L 46.27 45.714 C 47.616 44.214 49.458 41.571 50.379 39.857 L 52.008 36.786 L 52.008 23.214 L 49.953 19.429 L 47.828 15.643 L 45.349 13.429 C 44.003 12.214 41.24 10.5 39.257 9.571 L 35.715 7.929 L 32.173 7.571 L 28.631 7.214 L 25.656 7.857 Z M 2.279 23 C 1.854 23.5 1.146 25.143 0.65 26.643 L -0.2 29.357 L 0.296 32 C 0.508 33.429 1.217 35.357 1.783 36.214 L 2.775 37.857 L 5.255 37.857 C 6.6 37.857 7.734 37.643 7.734 37.429 C 7.734 37.214 7.238 35.5 6.6 33.5 L 5.467 30 L 6.6 26.5 C 8.088 21.929 8.159 22.143 5.325 22.143 L 2.917 22.143 L 2.279 23 Z M 52.362 22.643 C 52.362 22.929 52.929 24.571 53.566 26.286 L 54.77 29.429 L 53.92 32.429 C 53.495 34 52.929 35.929 52.716 36.571 L 52.22 37.857 L 57.321 37.857 L 58.525 35.929 L 59.8 34 L 59.8 29.929 L 59.729 25.929 L 58.525 24.071 L 57.321 22.143 L 54.841 22.143 C 53.495 22.143 52.362 22.357 52.362 22.643 Z M 22.61 55 L 22.61 57.786 L 24.735 58.929 L 26.789 60 L 29.906 60 C 31.606 60 34.015 59.643 35.29 59.214 L 37.486 58.429 L 37.486 52.214 L 35.007 53.286 C 33.661 53.786 31.465 54.286 30.048 54.286 C 28.631 54.286 26.435 53.786 25.089 53.286 L 22.61 52.214 L 22.61 55 Z"/>
</svg>