<?xml version="1.0" encoding="utf-8"?>
<svg version="1.2" viewBox="0 0 100 100" width="100px" height="100px" xmlns="http://www.w3.org/2000/svg">
  <path class="a" d="M 43.32 1.267 L 41.107 2.454 L 41.107 8.63 L 43.874 7.443 L 46.561 6.334 L 53.043 6.334 L 55.336 7.522 L 57.708 8.789 L 57.708 1.742 L 55.257 0.871 C 53.834 0.396 51.067 0 49.091 0 L 45.455 0.079 L 43.32 1.267 Z M 26.561 5.938 C 23.241 7.126 19.289 10.53 18.498 12.827 L 18.103 14.252 L 19.447 16.548 L 20.87 18.923 L 24.032 15.439 L 27.273 12.035 L 31.067 11.006 C 33.123 10.53 34.704 9.897 34.625 9.58 C 34.466 9.343 33.834 8.155 33.281 6.888 L 32.174 4.751 L 30.909 4.751 C 30.198 4.83 28.3 5.305 26.561 5.938 Z M 65.771 7.522 L 64.111 10.214 L 67.036 10.768 C 71.304 11.56 73.992 13.064 76.364 16.231 L 78.498 19.082 L 80 16.548 L 81.502 14.093 L 81.028 12.668 C 80.791 11.876 79.368 10.135 77.866 8.789 L 75.178 6.413 L 72.174 5.622 C 67.826 4.355 67.51 4.513 65.771 7.522 Z M 41.344 9.818 C 34.862 11.322 30.514 13.302 25.296 17.34 C 19.763 21.536 16.285 25.891 12.964 32.858 L 10.356 38.401 L 9.486 44.101 L 8.538 49.881 L 9.407 55.344 C 9.881 58.353 10.988 62.708 11.937 65.162 L 13.597 69.438 L 17.628 74.901 L 21.739 80.285 L 26.561 83.61 L 31.383 86.857 L 36.443 88.599 L 41.502 90.34 L 47.431 90.816 L 53.36 91.211 L 58.735 89.945 L 64.032 88.678 L 68.933 86.223 L 73.913 83.69 L 79.051 78.464 L 84.19 73.238 L 86.403 68.725 C 87.589 66.271 89.091 62.233 89.723 59.699 L 90.909 55.107 L 90.909 44.656 L 89.723 39.984 C 86.166 26.524 76.68 16.152 63.478 11.322 L 58.261 9.422 L 52.253 9.105 L 46.245 8.709 L 41.344 9.818 Z M 83.953 20.032 L 81.344 21.615 L 84.111 23.911 C 87.431 26.603 88.696 28.662 89.249 32.383 C 89.881 35.788 90.751 36.105 93.518 33.808 L 95.81 31.987 L 94.862 28.583 C 93.755 24.466 91.621 21.298 88.696 19.636 L 86.561 18.448 L 83.953 20.032 Z M 8.775 22.09 L 5.692 25.178 L 4.822 28.979 L 4.032 32.858 L 6.166 34.6 C 7.352 35.629 8.775 36.421 9.328 36.421 L 10.277 36.421 L 10.277 31.512 L 12.016 28.424 C 12.964 26.682 14.545 24.782 15.573 24.149 C 18.024 22.486 17.866 21.932 14.625 20.348 L 11.858 19.002 L 8.775 22.09 Z M 1.107 43.943 C 0.553 45.447 0 47.902 0 49.485 C 0 51.069 0.553 53.523 1.107 55.028 L 2.292 57.799 L 8.617 57.799 L 7.431 55.028 C 6.008 51.544 6.008 47.427 7.431 43.943 L 8.617 41.172 L 2.292 41.172 L 1.107 43.943 Z M 92.174 43.626 L 93.439 46.081 L 93.439 49.406 C 93.439 51.148 93.043 53.682 92.569 54.869 C 91.383 57.878 91.304 57.799 94.783 57.799 L 97.866 57.799 L 98.893 55.186 L 100 52.652 L 100 46.318 L 98.893 43.705 L 97.866 41.172 L 90.83 41.172 L 92.174 43.626 Z M 6.561 64.291 L 3.953 65.875 L 4.348 67.775 C 4.585 68.804 4.901 70.546 5.138 71.576 C 5.613 73.793 8.933 78.068 11.146 79.256 L 12.648 80.047 L 15.02 78.781 C 16.285 78.068 17.391 77.355 17.391 77.118 C 17.391 76.88 16.285 75.772 14.941 74.584 L 12.411 72.526 L 11.383 69.913 C 10.751 68.488 10.277 66.271 10.277 64.925 C 10.277 62.154 9.96 62.154 6.561 64.291 Z M 90.119 64.925 C 90.119 66.271 89.644 68.488 89.012 69.913 L 87.984 72.526 L 85.455 74.584 C 84.111 75.772 83.004 76.88 83.004 77.118 C 83.004 77.355 84.111 78.068 85.375 78.781 L 87.747 80.047 L 89.249 79.256 C 91.462 78.068 94.783 73.793 95.257 71.576 C 95.494 70.546 95.81 68.804 96.047 67.775 L 96.443 65.875 L 93.597 64.212 C 92.095 63.262 90.672 62.549 90.435 62.549 C 90.277 62.549 90.119 63.658 90.119 64.925 Z M 18.656 82.739 C 16.917 85.431 17.075 86.382 19.763 89.311 L 22.134 91.924 L 24.901 93.032 C 26.403 93.666 28.458 94.22 29.486 94.22 L 31.304 94.22 L 32.648 91.924 C 33.36 90.657 33.992 89.47 33.992 89.232 C 33.992 89.074 32.49 88.678 30.672 88.361 L 27.352 87.807 L 23.953 84.323 C 22.134 82.344 20.474 80.76 20.237 80.76 C 20.079 80.76 19.368 81.631 18.656 82.739 Z M 76.364 83.531 C 73.992 86.698 71.304 88.203 67.036 88.994 L 64.111 89.549 L 65.771 92.241 C 67.51 95.249 67.826 95.408 72.174 94.141 L 75.178 93.349 L 77.866 90.974 C 79.368 89.628 80.791 87.886 81.028 87.094 L 81.502 85.669 L 80 83.215 L 78.498 80.681 L 76.364 83.531 Z M 41.107 94.141 L 41.107 97.308 L 43.557 98.654 L 46.087 99.921 L 49.407 99.921 L 52.806 100 L 55.257 98.971 L 57.708 98.021 L 57.708 90.974 L 55.336 92.241 L 53.043 93.428 L 45.771 93.428 L 43.478 92.241 L 41.107 90.974 L 41.107 94.141 Z"/>
</svg>