<?xml version="1.0" encoding="utf-8"?>
<svg version="1.2" viewBox="0 0 60 100" width="60px" height="100px" xmlns="http://www.w3.org/2000/svg">
  <path class="a" d="M 8.603 0.543 L 8.219 1.008 L 8.219 100 L 51.507 100 L 51.507 0 L 8.932 0 L 8.603 0.543 Z M 1.096 13.333 L 0 16.667 L 0 24.419 L 1.096 27.674 L 2.137 31.008 L 7.562 31.008 L 6.521 27.132 C 5.26 22.481 5.205 19.147 6.301 14.729 C 6.74 12.946 7.123 11.163 7.123 10.775 L 7.123 10.078 L 2.137 10.078 L 1.096 13.333 Z M 52.603 10.388 C 52.603 10.543 53.096 12.171 53.699 14.031 L 54.795 17.442 L 54.795 23.643 L 53.699 27.054 C 53.096 28.915 52.603 30.543 52.603 30.698 C 52.603 30.853 53.808 31.008 55.342 31.008 L 58.027 31.008 L 59.014 28.45 L 59.945 25.969 L 59.945 15.116 L 59.014 12.558 L 58.027 10.078 L 55.342 10.078 C 53.808 10.078 52.603 10.233 52.603 10.388 Z M 1.096 44.341 L 0 47.674 L 0 55.426 L 1.096 58.682 L 2.137 62.016 L 7.616 62.016 L 6.466 58.45 L 5.37 54.806 L 5.589 50.853 L 5.808 46.899 L 6.685 44.419 C 7.178 43.023 7.397 41.783 7.233 41.55 C 7.068 41.318 5.863 41.085 4.548 41.085 L 2.137 41.085 L 1.096 44.341 Z M 52.603 41.395 C 52.603 41.55 53.151 43.333 53.753 45.349 L 54.904 49.07 L 54.685 52.713 C 54.521 54.651 54.027 57.442 53.534 58.915 C 52.986 60.31 52.603 61.628 52.603 61.783 C 52.603 61.86 53.808 62.016 55.342 62.016 L 58.027 62.016 L 59.014 59.457 L 59.945 56.977 L 59.945 51.938 L 60 46.899 L 59.068 43.953 L 58.137 41.085 L 55.397 41.085 C 53.863 41.085 52.603 41.24 52.603 41.395 Z M 1.096 74.574 L 0 77.907 L 0 85.659 L 1.096 88.915 L 2.137 92.248 L 4.932 92.248 C 6.411 92.248 7.671 92.093 7.671 92.015 C 7.671 91.86 7.233 90.543 6.74 89.07 L 5.808 86.434 L 5.589 82.481 L 5.37 78.527 L 6.466 74.884 L 7.616 71.318 L 2.137 71.318 L 1.096 74.574 Z M 52.603 71.628 C 52.603 71.783 53.096 73.411 53.699 75.271 L 54.795 78.682 L 54.795 84.884 L 53.699 88.295 C 53.096 90.155 52.603 91.783 52.603 91.938 C 52.603 92.093 53.863 92.248 55.397 92.248 L 58.137 92.248 L 59.068 89.302 L 60 86.434 L 59.945 81.395 L 59.945 76.357 L 59.014 73.798 L 58.027 71.318 L 55.342 71.318 C 53.808 71.318 52.603 71.473 52.603 71.628 Z"/>
</svg>