<?xml version="1.0" encoding="utf-8"?>
<svg version="1.2" viewBox="0 0 40 50" width="40px" height="50px" xmlns="http://www.w3.org/2000/svg">
  <path class="a" d="M 6.978 25 L 6.978 50 L 32.48 50 L 32.48 0 L 6.978 0 L 6.978 25 Z M 1.453 15.303 C 1.217 15.833 0.745 17.424 0.367 18.712 L -0.2 21.212 L -0.011 25.53 L 0.178 29.924 L 0.886 32.197 L 1.547 34.47 L 3.814 34.697 L 6.034 34.924 L 6.034 34.242 C 6.034 33.864 5.703 32.273 5.325 30.833 L 4.617 28.106 L 4.617 21.136 L 5.325 18.409 C 5.703 16.97 6.034 15.455 6.034 15.076 L 6.034 14.394 L 1.878 14.394 L 1.453 15.303 Z M 33.566 15.303 C 33.708 15.833 34.18 18.03 34.652 20.227 L 35.455 24.167 L 34.747 28.182 C 34.369 30.379 33.85 32.803 33.661 33.485 L 33.33 34.848 L 38.005 34.848 L 38.903 31.667 L 39.8 28.485 L 39.753 24.242 L 39.706 20.076 L 38.95 17.197 L 38.194 14.394 L 33.33 14.394 L 33.566 15.303 Z"/>
</svg>