<?xml version="1.0" encoding="utf-8"?>
<svg version="1.2" viewBox="0 0 60 80" width="60px" height="80px" xmlns="http://www.w3.org/2000/svg">
  <path class="a" d="M 9.031 40 L 9.031 80 L 52.279 80 L 52.279 0 L 9.031 0 L 9.031 40 Z M 1.531 16.692 L 0.6 19.615 L 0.6 28.846 L 1.476 31.692 L 2.407 34.615 L 8.045 34.615 L 7.662 33.231 C 6.348 28.923 5.801 26.308 5.801 24.231 C 5.801 22.154 6.348 19.538 7.662 15.154 L 8.045 13.846 L 2.461 13.846 L 1.531 16.692 Z M 53.374 14.538 C 53.374 14.923 53.757 16.462 54.195 17.923 L 55.016 20.692 L 55.016 28.077 L 53.921 31.308 L 52.881 34.615 L 58.355 34.615 L 59.396 31.308 L 60.491 28.077 L 60.491 20.385 L 59.396 17.077 L 58.355 13.846 L 53.374 13.846 L 53.374 14.538 Z M 1.531 48.615 L 0.6 51.154 L 0.6 61.154 L 1.531 63.615 L 2.516 66.154 L 5.199 66.154 C 6.731 66.154 7.936 66 7.936 65.846 C 7.936 65.692 7.443 64.077 6.841 62.231 L 5.746 58.846 L 5.746 56.385 C 5.746 55 6.239 52.154 6.786 50 L 7.826 46.154 L 2.516 46.154 L 1.531 48.615 Z M 53.374 49.231 C 53.374 49.692 53.757 51.308 54.195 52.846 L 55.016 55.538 L 55.016 62.692 L 53.921 66 L 52.881 69.308 L 55.728 69.077 L 58.574 68.846 L 59.341 66.538 L 60.162 64.231 L 60.381 59.923 L 60.6 55.615 L 59.505 52 L 58.355 48.462 L 53.374 48.462 L 53.374 49.231 Z"/>
</svg>