<svg width="179" height="156" viewBox="0 0 179 156" fill="none" xmlns="http://www.w3.org/2000/svg">
<g clip-path="url(#clip0_7870_41575)">
<circle cx="80" cy="79" r="50" fill="#B1000E"/>
<path d="M58.4154 138.465C56.5634 138.94 54.2743 139.63 52.8988 141.021C51.2227 142.716 50.6058 145.299 50.0585 147.874C50.006 148.122 49.6647 148.122 49.6122 147.874C49.1699 145.811 48.6015 143.333 47.4058 141.801C45.8846 139.852 43.5417 139.055 41.2422 138.465C41.002 138.403 41.002 138.075 41.2422 138.013C43.2543 137.497 45.5591 136.813 46.9976 135.232C48.4978 133.582 49.1003 130.996 49.6122 128.604C49.6647 128.355 50.006 128.355 50.0585 128.604C50.5362 130.852 51.3526 133.406 52.7124 135.009C54.189 136.749 56.2759 137.464 58.4154 138.013C58.6556 138.075 58.6556 138.403 58.4154 138.465Z" fill="#ED1C24"/>
<path d="M148.1 31.5048C145.454 32.1834 142.182 33.1704 140.215 35.1589C137.82 37.5818 136.939 41.2727 136.157 44.9517C136.082 45.3061 135.595 45.3074 135.519 44.9517C134.888 42.0025 134.074 38.4612 132.365 36.2719C130.192 33.4867 126.843 32.3475 123.557 31.5048C123.213 31.4169 123.213 30.947 123.557 30.859C126.431 30.1227 129.726 29.1449 131.782 26.8834C133.926 24.5261 134.787 20.8313 135.519 17.4108C135.595 17.0564 136.082 17.0564 136.157 17.4108C136.841 20.6239 138.006 24.2741 139.95 26.5644C142.061 29.0517 145.044 30.0741 148.1 30.8577C148.444 30.9457 148.444 31.4156 148.1 31.5035V31.5048Z" fill="#ED1C24"/>
<path d="M167.447 75.6807C164.801 76.3592 161.528 77.3463 159.562 79.3348C157.167 81.7577 156.286 85.4485 155.504 89.1276" fill="#ED1C24"/>
<path d="M174.856 47.8484C175.088 48.9391 175.483 50.1781 176.144 50.9552C176.86 51.7991 177.872 52.1469 178.91 52.4121" fill="#ED1C24"/>
<path d="M79.6894 132.836C50.4343 132.836 26.6328 109.035 26.6328 79.7797C26.6328 50.5246 50.4343 26.7231 79.6894 26.7231C108.944 26.7231 132.746 50.5246 132.746 79.7797C132.746 109.035 108.944 132.836 79.6894 132.836ZM79.6894 30.2499C52.3782 30.2499 30.1583 52.4698 30.1583 79.781C30.1583 107.092 52.3782 129.312 79.6894 129.312C107.001 129.312 129.221 107.092 129.221 79.781C129.221 52.4698 107.001 30.2499 79.6894 30.2499Z" fill="#B1000E"/>
<path d="M94.6783 33.0088C83.0742 28.0409 51.1664 26.8412 34.9448 58.4825C50.203 40.1727 66.7305 30.9206 94.6783 33.0088Z" fill="#FFABBF"/>
<path d="M69.0694 128.155C96.0223 126.207 114.664 110.438 127.561 91.418C125.477 103.273 117.466 114.16 107.76 120.859C98.0541 127.559 82.9809 131.641 68.9395 128.155" fill="#D20000"/>
<path d="M92.7622 49.9129C88.1264 55.2103 83.4892 60.5077 78.8533 65.8051C73.7646 61.3516 68.6759 56.8982 63.5872 52.4448C54.9757 44.9082 42.542 57.7199 51.2192 65.3129C56.5166 69.9487 61.814 74.5859 67.1101 79.2218C62.6566 84.3105 58.2032 89.3992 53.7498 94.4866C46.2132 103.098 59.0235 115.532 66.6179 106.855C71.2537 101.557 75.8909 96.2598 80.5268 90.9637C85.6155 95.4172 90.7042 99.8706 95.7916 104.324C104.403 111.861 116.835 99.0489 108.16 91.4559C102.862 86.8201 97.5648 82.1842 92.2687 77.547C96.7222 72.4583 101.176 67.3696 105.629 62.2822C113.166 53.6707 100.354 41.2384 92.7609 49.9142L92.7622 49.9129Z" fill="white"/>
</g>
<defs>
<clipPath id="clip0_7870_41575">
<rect width="178.91" height="155.111" fill="white"/>
</clipPath>
</defs>
</svg>
