<svg width="163" height="146" viewBox="0 0 163 146" fill="none" xmlns="http://www.w3.org/2000/svg">
<g clip-path="url(#clip0_7870_41597)">
<path d="M49.4102 16.4988C49.8592 18.6122 50.6266 21.013 51.9048 22.5194L49.4102 16.4988Z" fill="#89D81A"/>
<path d="M23.3127 69.1093C20.8255 69.7472 17.7497 70.675 15.9016 72.5441C13.65 74.8216 12.8222 78.2909 12.0869 81.749C12.0165 82.0822 11.5588 82.0834 11.4873 81.749C10.8938 78.9768 10.1289 75.6482 8.52257 73.5903C6.47949 70.9723 3.33221 69.9014 0.242919 69.1093C-0.0803219 69.0267 -0.0803219 68.585 0.242919 68.5023C2.94482 67.8102 6.04151 66.8911 7.97479 64.7653C9.98949 62.5495 10.7988 59.0765 11.4873 55.8614C11.5588 55.5283 12.0165 55.5283 12.0869 55.8614C12.7296 58.8816 13.8252 62.3127 15.6524 64.4655C17.6362 66.8035 20.4405 67.7646 23.3127 68.5011C23.6359 68.5838 23.6359 69.0255 23.3127 69.1081V69.1093Z" fill="#89D81A"/>
<path d="M150.83 44.063C149.986 44.2789 148.942 44.5947 148.314 45.2289C147.551 46.0012 147.269 47.1794 147.019 48.3539" fill="#89D81A"/>
<path d="M52.1467 119.525C51.4534 118.637 50.3849 118.273 49.3363 118.004C49.2265 117.976 49.2265 117.826 49.3363 117.798" fill="#89D81A"/>
<path d="M83.1148 145.552C82.9137 144.611 82.6534 143.482 82.1081 142.782C81.4147 141.894 80.3463 141.53 79.2976 141.261" fill="#89D81A"/>
<circle cx="92" cy="75" r="50" fill="#49C00F"/>
<path d="M92.2039 124.863C64.705 124.863 42.3323 102.491 42.3323 74.9917C42.3323 47.4928 64.705 25.1201 92.2039 25.1201C119.703 25.1201 142.075 47.4928 142.075 74.9917C142.075 102.491 119.703 124.863 92.2039 124.863ZM92.2039 28.4352C66.5322 28.4352 45.6461 49.3212 45.6461 74.993C45.6461 100.665 66.5322 121.551 92.2039 121.551C117.876 121.551 138.762 100.665 138.762 74.993C138.762 49.3212 117.876 28.4352 92.2039 28.4352Z" fill="#49C00F"/>
<path d="M118.478 50.8266C115.604 47.8903 109.561 47.3499 106.761 50.8266C101.94 56.809 97.1202 62.7915 92.3 68.7739C90.0052 71.6226 87.7092 74.4713 85.4145 77.32C84.6002 78.3317 83.6305 79.848 82.5731 81.2569C82.3671 81.0447 82.1598 80.8313 81.9526 80.619C80.3944 79.0176 78.8374 77.4175 77.2792 75.8161C69.8286 68.1595 58.1167 79.8825 65.5611 87.5329C69.4054 91.4822 73.3312 97.0044 78.5425 99.0882C84.2572 101.373 89.3267 98.6231 93.0007 94.1656C101.609 83.7219 109.988 73.0821 118.479 62.5435C121.307 59.0335 121.846 54.2675 118.479 50.8266H118.478Z" fill="white"/>
<path d="M106.423 31.0793C95.5153 26.4096 65.523 25.282 50.2751 55.0238C64.6174 37.8131 80.1527 29.1164 106.423 31.0793Z" fill="#BDDE23"/>
<path d="M82.1981 120.238C107.533 118.407 125.056 103.585 137.179 85.7068C135.219 96.85 127.69 107.084 118.566 113.381C109.443 119.678 95.2745 123.515 82.0759 120.238" fill="#15A208"/>
</g>
<defs>
<clipPath id="clip0_7870_41597">
<rect width="162.98" height="145.8" fill="white"/>
</clipPath>
</defs>
</svg>
